<svg width="35" height="35" viewBox="0 0 35 35" fill="none" xmlns="http://www.w3.org/2000/svg">
<path fill-rule="evenodd" clip-rule="evenodd" d="M12.0312 18.9583C12.0312 15.938 14.4797 13.4895 17.5 13.4895C20.5203 13.4895 22.9687 15.938 22.9687 18.9583C22.9687 21.9786 20.5203 24.427 17.5 24.427C14.4797 24.427 12.0312 21.9786 12.0312 18.9583ZM17.5 15.677C15.6878 15.677 14.2187 17.1461 14.2187 18.9583C14.2187 20.7705 15.6878 22.2395 17.5 22.2395C19.3122 22.2395 20.7812 20.7705 20.7812 18.9583C20.7812 17.1461 19.3122 15.677 17.5 15.677Z" fill="#7EBC89"/>
<path fill-rule="evenodd" clip-rule="evenodd" d="M15.4818 8.38538C13.9576 8.38538 12.722 9.62099 12.722 11.1452C12.722 12.1164 11.9765 12.9249 11.0085 13.0035L7.75697 13.2676C7.11855 13.3195 6.59351 13.7916 6.47435 14.4209C5.81993 17.8771 5.77114 21.4208 6.33014 24.8938L6.47196 25.7749C6.6059 26.6071 7.29079 27.2402 8.13087 27.3084L10.9634 27.5384C15.314 27.8917 19.686 27.8917 24.0365 27.5384L26.8691 27.3084C27.7092 27.2402 28.394 26.6071 28.528 25.7749L28.6698 24.8938C29.2288 21.4208 29.18 17.8771 28.5256 14.4209C28.4064 13.7916 27.8814 13.3195 27.243 13.2676L23.9915 13.0035C23.0235 12.9249 22.2779 12.1164 22.2779 11.1452C22.2779 9.62099 21.0423 8.38538 19.5181 8.38538H15.4818ZM10.5434 10.8466C10.6977 8.25331 12.8498 6.19788 15.4818 6.19788H19.5181C22.1502 6.19788 24.3022 8.25331 24.4566 10.8466L27.42 11.0873C29.0401 11.2189 30.3725 12.4169 30.6749 14.0139C31.3765 17.7192 31.4288 21.5182 30.8295 25.2414L30.6877 26.1225C30.3937 27.9492 28.8902 29.3389 27.0461 29.4887L24.2136 29.7187C19.7452 30.0816 15.2547 30.0816 10.7864 29.7187L7.95379 29.4887C6.10969 29.3389 4.60628 27.9492 4.31226 26.1226L4.17044 25.2414C3.57116 21.5182 3.62347 17.7192 4.32504 14.0139C4.62743 12.4169 5.95981 11.2189 7.5799 11.0873L10.5434 10.8466Z" fill="#7EBC89"/>
</svg>
