<svg width="52" height="52" viewBox="0 0 52 52" fill="none" xmlns="http://www.w3.org/2000/svg">
<path d="M29.25 21.125C29.25 20.2275 28.5225 19.5 27.625 19.5H14.625C13.7275 19.5 13 20.2275 13 21.125C13 22.0225 13.7275 22.75 14.625 22.75H27.625C28.5225 22.75 29.25 22.0225 29.25 21.125Z" fill="#7B7A7A"/>
<path d="M27.0833 27.625C27.0833 26.7275 26.3558 26 25.4583 26H14.625C13.7275 26 13 26.7275 13 27.625C13 28.5225 13.7275 29.25 14.625 29.25H25.4583C26.3558 29.25 27.0833 28.5225 27.0833 27.625Z" fill="#7B7A7A"/>
<path d="M27.625 32.5C28.5225 32.5 29.25 33.2275 29.25 34.125C29.25 35.0225 28.5225 35.75 27.625 35.75H14.625C13.7275 35.75 13 35.0225 13 34.125C13 33.2275 13.7275 32.5 14.625 32.5H27.625Z" fill="#7B7A7A"/>
<path fill-rule="evenodd" clip-rule="evenodd" d="M13 47.125H41.1667C44.4574 47.125 47.125 44.4574 47.125 41.1667V29.25C47.125 28.3526 46.3975 27.625 45.5 27.625H38.4583V10.7103C38.4583 7.62622 34.9724 5.8323 32.4628 7.62486L32.0835 7.89576C30.3925 9.10366 28.1018 9.09961 26.4028 7.88604C23.5778 5.86815 19.7555 5.86815 16.9305 7.88604C15.2315 9.09961 12.9409 9.10366 11.2498 7.89576L10.8705 7.62486C8.36094 5.8323 4.875 7.62623 4.875 10.7103V39C4.875 43.4873 8.51269 47.125 13 47.125ZM18.8195 10.5307C20.5145 9.31994 22.8188 9.31994 24.5138 10.5307C27.3349 12.5457 31.1436 12.5611 33.9726 10.5404L34.3518 10.2695C34.7103 10.0134 35.2083 10.2697 35.2083 10.7103V41.1667C35.2083 42.1419 35.4426 43.0624 35.858 43.875H13C10.3076 43.875 8.125 41.6924 8.125 39V10.7103C8.125 10.2697 8.62299 10.0134 8.9815 10.2695L9.36077 10.5404C12.1898 12.5611 15.9984 12.5457 18.8195 10.5307ZM38.4583 41.1667V30.875H43.875V41.1667C43.875 42.6625 42.6624 43.875 41.1667 43.875C39.6709 43.875 38.4583 42.6625 38.4583 41.1667Z" fill="#7B7A7A"/>
</svg>
