<svg width="24" height="34" viewBox="0 0 24 34" fill="none" xmlns="http://www.w3.org/2000/svg">
<path fill-rule="evenodd" clip-rule="evenodd" d="M11.0757 0.364925C13.0052 -0.121642 14.9948 -0.121642 16.9243 0.364925C17.7589 0.575385 18.4015 1.39755 18.54 2.43206L18.61 2.9545C19.1973 7.34003 19.1973 11.8143 18.61 16.1998L18.54 16.7223C18.4015 17.7568 17.7589 18.5789 16.9243 18.7894C14.9948 19.276 13.0052 19.276 11.0757 18.7894C10.2411 18.5789 9.59848 17.7568 9.45995 16.7223L9.38999 16.1998C8.80272 11.8143 8.80272 7.34003 9.38999 2.9545L9.45995 2.43206C9.59848 1.39755 10.2411 0.575385 11.0757 0.364925ZM16.5358 2.69843C14.8626 2.2765 13.1374 2.2765 11.4642 2.69843C11.4154 2.71074 11.3778 2.75886 11.3697 2.8194L11.2997 3.34184C10.7468 7.47087 10.7468 11.6835 11.2997 15.8125L11.3697 16.3349C11.3778 16.3955 11.4154 16.4436 11.4642 16.4559C13.1374 16.8778 14.8626 16.8778 16.5358 16.4559C16.5846 16.4436 16.6222 16.3955 16.6303 16.3349L16.7003 15.8125C17.2532 11.6835 17.2532 7.47087 16.7003 3.34184L16.6303 2.8194C16.6222 2.75886 16.5846 2.71074 16.5358 2.69843Z" fill="#7EBC89"/>
<path d="M4.83208 13.9559C5.36126 13.8636 5.85103 14.3168 5.92601 14.968L6.5073 20.0167C6.66436 21.3808 7.54295 22.4474 8.65337 22.6219C12.2034 23.18 15.7966 23.18 19.3466 22.6219C20.457 22.4474 21.3356 21.3808 21.4927 20.0167L22.074 14.968C22.149 14.3168 22.6387 13.8636 23.1679 13.9559C23.6971 14.0482 24.0653 14.651 23.9903 15.3022L23.409 20.3509C23.1297 22.7772 21.5669 24.6742 19.5919 24.9847C18.0561 25.2261 16.5126 25.3677 14.9678 25.4094V31.809C14.9678 32.4668 14.5345 33 14 33C13.4656 33 13.0323 32.4668 13.0323 31.809V25.4094C11.4874 25.3677 9.94392 25.2261 8.40814 24.9847C6.43307 24.6742 4.87034 22.7772 4.59099 20.3509L4.00969 15.3022C3.93471 14.651 4.3029 14.0482 4.83208 13.9559Z" fill="#7EBC89"/>
</svg>
