<svg width="52" height="52" viewBox="0 0 52 52" fill="none" xmlns="http://www.w3.org/2000/svg">
<path fill-rule="evenodd" clip-rule="evenodd" d="M15.7085 15.7083V15.4486C15.7085 10.7518 18.8884 6.65087 23.4371 5.48118C25.1185 5.04883 26.8819 5.04883 28.5632 5.48118C33.112 6.65087 36.2919 10.7518 36.2919 15.4486V15.7083H39.5443C40.7821 15.7083 41.8326 16.6161 42.012 17.8408L42.4858 21.0745C43.4186 27.4411 43.4186 33.9097 42.4858 40.2764C42.0353 43.351 39.556 45.7279 36.4652 46.0484L35.1026 46.1897C29.0506 46.8174 22.9498 46.8174 16.8977 46.1897L15.5352 46.0484C12.4444 45.7279 9.96506 43.351 9.51457 40.2764C8.58173 33.9097 8.58173 27.4411 9.51457 21.0745L9.98837 17.8408C10.1678 16.6161 11.2183 15.7083 12.4561 15.7083H15.7085ZM24.2465 8.62878C25.3969 8.33297 26.6035 8.33297 27.7539 8.62878C30.8662 9.4291 33.0419 12.235 33.0419 15.4486V15.7083H18.9585V15.4486C18.9585 12.235 21.1342 9.4291 24.2465 8.62878ZM15.7085 18.9583V23.8333C15.7085 24.7308 16.4361 25.4583 17.3335 25.4583C18.231 25.4583 18.9585 24.7308 18.9585 23.8333V18.9583H33.0419V23.8333C33.0419 24.7308 33.7694 25.4583 34.6669 25.4583C35.5643 25.4583 36.2919 24.7308 36.2919 23.8333V18.9583H38.891L39.2701 21.5456C40.1572 27.5998 40.1572 33.751 39.2701 39.8052C39.0352 41.4088 37.742 42.6486 36.1299 42.8158L34.7674 42.9571C28.9382 43.5616 23.0622 43.5616 17.233 42.9571L15.8704 42.8158C14.2583 42.6486 12.9652 41.4088 12.7302 39.8052C11.8432 33.751 11.8432 27.5998 12.7302 21.5456L13.1093 18.9583H15.7085Z" fill="#7B7A7A"/>
</svg>
