<svg width="52" height="52" viewBox="0 0 52 52" fill="none" xmlns="http://www.w3.org/2000/svg">
<path fill-rule="evenodd" clip-rule="evenodd" d="M41.4869 11.375H11.5596L9.00259 6.79161C8.71557 6.27715 8.1726 5.95831 7.5835 5.95831H4.3335C3.43603 5.95831 2.7085 6.68585 2.7085 7.58331C2.7085 8.48078 3.43603 9.20831 4.3335 9.20831H6.62929L9.1528 13.7316L14.9726 26.6086L14.9786 26.6217L15.4912 27.7559L9.64804 33.9886C9.2279 34.4367 9.09638 35.0835 9.30813 35.6601C9.51988 36.2368 10.0387 36.6447 10.649 36.7145L15.975 37.3232C22.6368 38.0845 29.3636 38.0845 36.0254 37.3232L41.3514 36.7145C42.243 36.6126 42.8833 35.8071 42.7814 34.9155C42.6795 34.0238 41.874 33.3836 40.9824 33.4855L35.6564 34.0942C29.2398 34.8275 22.7606 34.8275 16.344 34.0942L14.2304 33.8526L18.519 29.2781C18.5605 29.2338 18.599 29.1879 18.6346 29.1404L20.2657 29.3527C22.5514 29.6501 24.8618 29.7084 27.1596 29.5266C32.5188 29.1028 37.4857 26.5527 40.9534 22.4446L42.2058 20.9609C42.2479 20.911 42.2869 20.8587 42.3227 20.8042L44.657 17.2468C46.3116 14.7254 44.5028 11.375 41.4869 11.375ZM18.7554 25.8788C18.397 25.8321 18.088 25.6045 17.9371 25.2764L17.9342 25.2701L13.1231 14.625H41.4869C41.9177 14.625 42.1761 15.1036 41.9398 15.4638L39.6592 18.9393L38.4699 20.3483C35.5621 23.793 31.3972 25.9313 26.9033 26.2868C24.8308 26.4507 22.7467 26.3981 20.6851 26.1298L18.7554 25.8788Z" fill="#7B7A7A"/>
<path d="M14.0835 40.0833C12.2886 40.0833 10.8335 41.5384 10.8335 43.3333C10.8335 45.1282 12.2886 46.5833 14.0835 46.5833C15.8784 46.5833 17.3335 45.1282 17.3335 43.3333C17.3335 41.5384 15.8784 40.0833 14.0835 40.0833Z" fill="#7B7A7A"/>
<path d="M34.6668 43.3333C34.6668 41.5384 36.1219 40.0833 37.9168 40.0833C39.7118 40.0833 41.1668 41.5384 41.1668 43.3333C41.1668 45.1282 39.7118 46.5833 37.9168 46.5833C36.1219 46.5833 34.6668 45.1282 34.6668 43.3333Z" fill="#7B7A7A"/>
</svg>
